<svg width="695" height="591" viewBox="0 0 695 591" fill="none" xmlns="http://www.w3.org/2000/svg">
<path d="M8 78V8H415.5V111M415.5 175.5V215M415.5 338V215M415.5 437.5V583M415.5 583H8V140.5M415.5 583H686.5V456.5V215H415.5" stroke="#434E4F" stroke-width="16"/>
<rect x="203" y="285" width="25" height="25" rx="5" fill="#597374"/>
<rect x="470" y="447" width="25" height="25" rx="5" fill="#597374"/>
<rect x="515" y="447" width="25" height="25" rx="5" fill="#597374"/>
<rect x="605" y="447" width="25" height="25" rx="5" fill="#597374"/>
<rect x="560" y="447" width="25" height="25" rx="5" fill="#597374"/>
<rect x="203" y="372" width="25" height="25" rx="5" fill="#597374"/>
<rect x="203" y="154" width="25" height="25" rx="5" fill="#597374"/>
<rect x="203" y="241" width="25" height="25" rx="5" fill="#597374"/>
<path d="M161 555C161 561.627 155.627 567 149 567H31C24.3726 567 19 561.627 19 555V539C19 536.791 20.7909 535 23 535H157C159.209 535 161 536.791 161 539V555Z" fill="#597374"/>
<path d="M152 551.889C152 556.307 148.418 559.889 144 559.889H36C31.5817 559.889 28 556.307 28 551.889V535H152V551.889Z" fill="#869E9E"/>
<line x1="69.5" y1="537.667" x2="69.5" y2="558.111" stroke="#597374"/>
<line x1="110.5" y1="537.667" x2="110.5" y2="558.111" stroke="#597374"/>
<path d="M161 456C161 449.373 155.627 444 149 444H31C24.3726 444 19 449.373 19 456V472C19 474.209 20.7909 476 23 476H157C159.209 476 161 474.209 161 472V456Z" fill="#597374"/>
<path d="M152 459.111C152 454.693 148.418 451.111 144 451.111H36C31.5817 451.111 28 454.693 28 459.111V476H152V459.111Z" fill="#869E9E"/>
<line y1="-0.5" x2="20.4444" y2="-0.5" transform="matrix(0 -1 -1 0 69 473.333)" stroke="#597374"/>
<line y1="-0.5" x2="20.4444" y2="-0.5" transform="matrix(0 -1 -1 0 110 473.333)" stroke="#597374"/>
<path d="M404 556C404 562.627 398.627 568 392 568H274C267.373 568 262 562.627 262 556V540C262 537.791 263.791 536 266 536H400C402.209 536 404 537.791 404 540V556Z" fill="#597374"/>
<path d="M395 552.889C395 557.307 391.418 560.889 387 560.889H279C274.582 560.889 271 557.307 271 552.889V536H395V552.889Z" fill="#869E9E"/>
<line x1="312.5" y1="538.667" x2="312.5" y2="559.111" stroke="#597374"/>
<line x1="353.5" y1="538.667" x2="353.5" y2="559.111" stroke="#597374"/>
<path d="M404 455C404 448.373 398.627 443 392 443H274C267.373 443 262 448.373 262 455V471C262 473.209 263.791 475 266 475H400C402.209 475 404 473.209 404 471V455Z" fill="#597374"/>
<path d="M395 458.111C395 453.693 391.418 450.111 387 450.111H279C274.582 450.111 271 453.693 271 458.111V475H395V458.111Z" fill="#869E9E"/>
<line y1="-0.5" x2="20.4444" y2="-0.5" transform="matrix(0 -1 -1 0 312 472.333)" stroke="#597374"/>
<line y1="-0.5" x2="20.4444" y2="-0.5" transform="matrix(0 -1 -1 0 353 472.333)" stroke="#597374"/>
<path d="M649 556C649 562.627 643.627 568 637 568H470C463.373 568 458 562.627 458 556V540C458 537.791 459.791 536 462 536H645C647.209 536 649 537.791 649 540V556Z" fill="#597374"/>
<path d="M639 553C639 557.418 635.418 561 631 561H476C471.582 561 468 557.418 468 553V536H639V553Z" fill="#869E9E"/>
<line x1="510.5" y1="539" x2="510.5" y2="559" stroke="#597374"/>
<line x1="553.5" y1="539" x2="553.5" y2="559" stroke="#597374"/>
<line x1="596.5" y1="539" x2="596.5" y2="559" stroke="#597374"/>
<rect width="25" height="25" rx="5" transform="matrix(1 0 0 -1 470 351)" fill="#597374"/>
<rect width="25" height="25" rx="5" transform="matrix(1 0 0 -1 515 351)" fill="#597374"/>
<rect width="25" height="25" rx="5" transform="matrix(1 0 0 -1 605 351)" fill="#597374"/>
<rect width="25" height="25" rx="5" transform="matrix(1 0 0 -1 560 351)" fill="#597374"/>
<path d="M649 242C649 235.373 643.627 230 637 230L470 230C463.373 230 458 235.373 458 242V258C458 260.209 459.791 262 462 262L645 262C647.209 262 649 260.209 649 258V242Z" fill="#597374"/>
<path d="M639 245C639 240.582 635.418 237 631 237L476 237C471.582 237 468 240.582 468 245V262L639 262V245Z" fill="#869E9E"/>
<line y1="-0.5" x2="20" y2="-0.5" transform="matrix(0 -1 -1 0 510 259)" stroke="#597374"/>
<line y1="-0.5" x2="20" y2="-0.5" transform="matrix(0 -1 -1 0 553 259)" stroke="#597374"/>
<line y1="-0.5" x2="20" y2="-0.5" transform="matrix(0 -1 -1 0 596 259)" stroke="#597374"/>
<path d="M110 430C110 436.627 104.627 442 98 442H31C24.3726 442 19 436.627 19 430V414C19 411.791 20.7909 410 23 410H106C108.209 410 110 411.791 110 414V430Z" fill="#597374"/>
<path d="M104.232 426.889C104.232 431.307 100.651 434.889 96.2324 434.889H32.7676C28.3493 434.889 24.7676 431.307 24.7676 426.889V410H104.232V426.889Z" fill="#869E9E"/>
<line x1="62.919" y1="413.37" x2="63.0692" y2="434.033" stroke="#597374"/>
<path d="M110 331C110 324.373 104.627 319 98 319H31C24.3726 319 19 324.373 19 331V347C19 349.209 20.7909 351 23 351H106C108.209 351 110 349.209 110 347V331Z" fill="#597374"/>
<path d="M104.232 334.111C104.232 329.693 100.651 326.111 96.2324 326.111H32.7676C28.3493 326.111 24.7676 329.693 24.7676 334.111V351H104.232V334.111Z" fill="#869E9E"/>
<line y1="-0.5" x2="20.4444" y2="2.5" transform="matrix(0.152372 -0.988323 -0.988323 -0.152372 62.4248 347.554)" stroke="#597374"/>
<path d="M404 290C404 296.627 398.627 302 392 302H325C318.373 302 313 296.627 313 290V274C313 271.791 314.791 270 317 270H400C402.209 270 404 271.791 404 274V290Z" fill="#597374"/>
<path d="M398.232 286.889C398.232 291.307 394.651 294.889 390.232 294.889H326.768C322.349 294.889 318.768 291.307 318.768 286.889V270H398.232V286.889Z" fill="#869E9E"/>
<line x1="356.919" y1="273.37" x2="357.069" y2="294.033" stroke="#597374"/>
<path d="M404 191C404 184.373 398.627 179 392 179L325 179C318.373 179 313 184.373 313 191V207C313 209.209 314.791 211 317 211L400 211C402.209 211 404 209.209 404 207V191Z" fill="#597374"/>
<path d="M398.232 194.111C398.232 189.693 394.651 186.111 390.232 186.111H326.768C322.349 186.111 318.768 189.693 318.768 194.111V211H398.232V194.111Z" fill="#869E9E"/>
<line y1="-0.5" x2="20.4444" y2="2.5" transform="matrix(0.152372 -0.988323 -0.988323 -0.152372 356.425 207.554)" stroke="#597374"/>
<path d="M110 290C110 296.627 104.627 302 98 302H31C24.3726 302 19 296.627 19 290V274C19 271.791 20.7909 270 23 270H106C108.209 270 110 271.791 110 274V290Z" fill="#597374"/>
<path d="M104.232 286.889C104.232 291.307 100.651 294.889 96.2324 294.889H32.7676C28.3493 294.889 24.7676 291.307 24.7676 286.889V270H104.232V286.889Z" fill="#869E9E"/>
<line x1="62.919" y1="273.37" x2="63.0692" y2="294.033" stroke="#597374"/>
<path d="M110 191C110 184.373 104.627 179 98 179L31 179C24.3726 179 19 184.373 19 191V207C19 209.209 20.7909 211 23 211L106 211C108.209 211 110 209.209 110 207V191Z" fill="#597374"/>
<path d="M104.232 194.111C104.232 189.693 100.651 186.111 96.2324 186.111H32.7676C28.3493 186.111 24.7676 189.693 24.7676 194.111V211H104.232V194.111Z" fill="#869E9E"/>
<line y1="-0.5" x2="20.4444" y2="2.5" transform="matrix(0.152372 -0.988323 -0.988323 -0.152372 62.4248 207.554)" stroke="#597374"/>
<path d="M95 111C88.3726 111 83 105.627 83 99L83 32C83 25.3726 88.3726 20 95 20L111 20C113.209 20 115 21.7909 115 24L115 107C115 109.209 113.209 111 111 111L95 111Z" fill="#597374"/>
<path d="M98.1111 105.232C93.6928 105.232 90.1111 101.651 90.1111 97.2324L90.1111 33.7676C90.1111 29.3493 93.6928 25.7676 98.1111 25.7676L115 25.7676L115 105.232L98.1111 105.232Z" fill="#869E9E"/>
<line x1="111.63" y1="63.919" x2="90.9671" y2="64.0692" stroke="#597374"/>
<path d="M194 111C200.627 111 206 105.627 206 99L206 32C206 25.3726 200.627 20 194 20L178 20C175.791 20 174 21.7909 174 24L174 107C174 109.209 175.791 111 178 111L194 111Z" fill="#597374"/>
<path d="M190.889 105.232C195.307 105.232 198.889 101.651 198.889 97.2324L198.889 33.7676C198.889 29.3493 195.307 25.7676 190.889 25.7676L174 25.7676L174 105.232L190.889 105.232Z" fill="#869E9E"/>
<line y1="-0.5" x2="20.4444" y2="2.5" transform="matrix(0.988323 0.152373 0.152373 -0.988323 177.446 63.4248)" stroke="#597374"/>
<path d="M235 111C228.373 111 223 105.627 223 99L223 32C223 25.3726 228.373 20 235 20L251 20C253.209 20 255 21.7909 255 24L255 107C255 109.209 253.209 111 251 111L235 111Z" fill="#597374"/>
<path d="M238.111 105.232C233.693 105.232 230.111 101.651 230.111 97.2324L230.111 33.7676C230.111 29.3493 233.693 25.7676 238.111 25.7676L255 25.7676L255 105.232L238.111 105.232Z" fill="#869E9E"/>
<line x1="251.63" y1="63.919" x2="230.967" y2="64.0692" stroke="#597374"/>
<path d="M334 111C340.627 111 346 105.627 346 99L346 32C346 25.3726 340.627 20 334 20L318 20C315.791 20 314 21.7909 314 24L314 107C314 109.209 315.791 111 318 111L334 111Z" fill="#597374"/>
<path d="M330.889 105.232C335.307 105.232 338.889 101.651 338.889 97.2324L338.889 33.7676C338.889 29.3493 335.307 25.7676 330.889 25.7676L314 25.7676L314 105.232L330.889 105.232Z" fill="#869E9E"/>
<line y1="-0.5" x2="20.4444" y2="2.5" transform="matrix(0.988323 0.152373 0.152373 -0.988323 317.446 63.4248)" stroke="#597374"/>
</svg>
